<svg width="138" height="115" viewBox="0 0 138 115" fill="none" xmlns="http://www.w3.org/2000/svg">
<g opacity="0.6">
<path d="M3.53711 38.0367C3.53711 27.0441 12.4484 18.1328 23.441 18.1328H73.864V72.5367H3.53711V38.0367Z" fill="#7E7E7E"/>
<path d="M39.6534 113.683C41.8074 111.862 43.1157 108.986 42.7726 106.187C42.4295 103.387 40.3043 100.814 37.5477 100.219C34.791 99.6245 31.6486 101.27 30.8113 103.964C30.3506 98.7709 29.8196 93.3606 27.0593 88.9386C24.56 84.9345 20.2311 82.0694 15.5396 81.5569C10.8481 81.0443 5.90852 82.9802 2.98259 86.6839C0.0566597 90.3875 -0.659741 95.7719 1.38951 100.024C2.89911 103.156 5.68034 105.488 8.59438 107.384C18.0107 113.461 29.3043 115.932 40.3973 114.343" fill="#3B3B3B"/>
<path d="M7.62233 83.0911C11.4934 86.2447 15.0447 89.7719 18.2249 93.6214C23.2019 99.6254 27.2293 106.357 30.1668 113.581C30.3819 114.109 29.5262 114.338 29.3136 113.817C27.4455 109.249 25.1343 104.875 22.4132 100.759C18.17 94.3275 12.9714 88.5809 6.99662 83.7169C6.55486 83.3571 7.18422 82.7342 7.62233 83.0911Z" fill="white"/>
<path d="M41.1414 113.683C38.9874 111.862 37.6791 108.986 38.0222 106.187C38.3653 103.387 40.4905 100.814 43.2471 100.219C46.0038 99.6245 49.1462 101.27 49.9835 103.964C50.4443 98.7709 50.9752 93.3606 53.7355 88.9386C56.2348 84.9345 60.5637 82.0694 65.2552 81.5569C69.9467 81.0443 74.8863 82.9802 77.8122 86.6839C80.7381 90.3875 81.4545 95.7719 79.4053 100.024C77.8957 103.156 75.1145 105.488 72.2004 107.384C62.7841 113.461 51.4905 115.932 40.3975 114.343" fill="#3B3B3B"/>
<path d="M73.1736 83.0911C69.3025 86.2447 65.7512 89.7719 62.571 93.6214C57.5941 99.6254 53.5667 106.357 50.6291 113.581C50.4141 114.109 51.2697 114.338 51.4824 113.817C56.2887 102.075 63.9616 91.7265 73.7993 83.7169C74.2411 83.3571 73.6117 82.7342 73.1736 83.0911Z" fill="white"/>
<path d="M47.5345 51.6803C51.5194 51.6803 54.7497 48.4493 54.7497 44.4637C54.7497 40.4781 51.5194 37.2471 47.5345 37.2471C43.5497 37.2471 40.3193 40.4781 40.3193 44.4637C40.3193 48.4493 43.5497 51.6803 47.5345 51.6803Z" fill="#FAFAFA"/>
<path d="M25.2861 19.5859H74.9969V22.3062H31.6322C29.0825 22.3062 26.5578 22.8085 24.2022 23.7844C21.8466 24.7603 19.7062 26.1907 17.9033 27.994C16.1004 29.7972 14.6703 31.938 13.6945 34.294C12.7188 36.6501 12.2166 39.1753 12.2166 41.7255V72.6308H6.77718C6.53674 72.6308 6.30616 72.5353 6.13614 72.3652C5.96613 72.1952 5.87061 71.9645 5.87061 71.7241V39.0052C5.8706 36.455 6.3728 33.9298 7.34852 31.5738C8.32424 29.2177 9.75439 27.0769 11.5573 25.2737C13.3602 23.4704 15.5005 22.04 17.8561 21.0641C20.2117 20.0882 22.7365 19.5859 25.2861 19.5859Z" fill="#F2F2F2"/>
<path d="M34.8491 113.837V72.5166H46.952V113.837C46.9517 114.115 46.8413 114.381 46.6449 114.578C46.4486 114.774 46.1823 114.885 45.9047 114.885H35.8965C35.6188 114.885 35.3526 114.774 35.1562 114.578C34.9599 114.381 34.8494 114.115 34.8491 113.837Z" fill="black"/>
<path d="M3.31152 71.6982V38.098C3.31756 32.7491 5.44468 27.621 9.2262 23.8387C13.0077 20.0564 18.1348 17.9289 23.4827 17.9229H74.7653V72.8621H4.47527C4.16673 72.8618 3.87094 72.739 3.65277 72.5208C3.4346 72.3026 3.31188 72.0068 3.31152 71.6982ZM74.2998 18.3884H23.4827C18.2583 18.3944 13.2495 20.4728 9.55521 24.1678C5.86095 27.8628 3.78293 32.8725 3.77702 38.098V71.6982C3.77722 71.8833 3.85085 72.0608 3.98175 72.1918C4.11266 72.3227 4.29014 72.3963 4.47527 72.3965H74.2998V18.3884Z" fill="black"/>
<path d="M47.5333 48.1883C46.4226 48.187 45.3577 47.7451 44.5723 46.9596C43.7869 46.174 43.3451 45.1089 43.3438 43.998V13.9676C43.3436 13.7825 43.27 13.6049 43.1391 13.474C43.0082 13.3431 42.8307 13.2694 42.6456 13.2692H26.3532C26.0447 13.2689 25.7489 13.1461 25.5307 12.9279C25.3125 12.7097 25.1898 12.4139 25.1895 12.1053V1.16397C25.1898 0.855374 25.3125 0.55952 25.5307 0.341312C25.7489 0.123103 26.0447 0.000357347 26.3532 0H50.559C50.8676 0.000353043 51.1633 0.123098 51.3815 0.341308C51.5997 0.559518 51.7224 0.855373 51.7228 1.16397V43.998C51.7215 45.1089 51.2797 46.174 50.4943 46.9596C49.7089 47.7451 48.644 48.187 47.5333 48.1883Z" fill="black"/>
<path d="M76.627 17.461C80.1382 17.4536 83.5085 18.8416 85.9964 21.3197C88.4844 23.7977 89.8863 27.1628 89.8937 30.6747V68.9249H115.961C117.009 68.9227 118.014 69.3367 118.756 70.0757C119.498 70.8148 119.916 71.8184 119.918 72.8658H63.3604V30.6747C63.3677 27.1628 64.7696 23.7977 67.2576 21.3197C69.7455 18.8416 73.1158 17.4536 76.627 17.461Z" fill="#3B3B3B"/>
<path d="M47.534 45.6292C48.4338 45.6292 49.1633 44.8997 49.1633 43.9997C49.1633 43.0997 48.4338 42.3701 47.534 42.3701C46.6342 42.3701 45.9048 43.0997 45.9048 43.9997C45.9048 44.8997 46.6342 45.6292 47.534 45.6292Z" fill="white"/>
<g clip-path="url(#clip0_370_5032)">
<path d="M97.2304 31.7837C97.5276 31.6064 97.571 31.1287 97.3272 30.7169C97.0835 30.305 96.6449 30.1148 96.3477 30.2922C96.0505 30.4695 96.0072 30.9472 96.2509 31.3591C96.4947 31.7709 96.9332 31.9611 97.2304 31.7837Z" fill="#3B3B3B"/>
<path d="M96.6854 29.9708C96.7291 30.0694 96.7324 30.1812 96.6948 30.2823C96.6571 30.3833 96.5814 30.4655 96.4841 30.5111C96.4441 30.5485 96.3963 30.5764 96.3441 30.5928C96.292 30.6091 96.2369 30.6136 96.1828 30.6058C96.1287 30.598 96.0771 30.5782 96.0316 30.5478C95.9862 30.5174 95.9481 30.4771 95.9202 30.43C95.8922 30.3828 95.8751 30.33 95.8702 30.2754C95.8652 30.2208 95.8725 30.1657 95.8914 30.1143C95.9104 30.0629 95.9406 30.0164 95.9798 29.9782C96.019 29.94 96.0662 29.9111 96.118 29.8936C96.2039 29.8296 96.3113 29.8018 96.4173 29.8162C96.5233 29.8307 96.6195 29.8861 96.6854 29.9708Z" fill="#3B3B3B"/>
<path d="M98.29 32.1483C98.7293 32.8834 98.7952 33.6664 98.4401 33.8796C98.085 34.0928 97.437 33.6627 96.9977 32.9202C96.5584 32.1777 96.8366 31.9902 97.1954 31.777C97.5541 31.5638 97.847 31.4057 98.29 32.1483Z" fill="#3B3B3B"/>
<path d="M97.0073 32.9188V32.9409L98.3252 32.1726V32.1469C98.2461 32.0182 98.158 31.8954 98.0616 31.7793L96.8315 32.5145C96.8794 32.6537 96.9382 32.7889 97.0073 32.9188Z" fill="#3B3B3B"/>
<path d="M97.7656 33.7632C97.8457 33.8628 97.9588 33.93 98.0842 33.9528C98.2096 33.9755 98.3389 33.9522 98.4486 33.8871C98.5583 33.822 98.641 33.7194 98.6816 33.5982C98.7222 33.4769 98.7181 33.345 98.6699 33.2266L97.7656 33.7632Z" fill="#3B3B3B"/>
<path d="M96.8032 32.1615L97.7294 31.6101C97.5404 31.6021 97.3548 31.662 97.2059 31.7792C97.0229 31.8895 96.8618 31.9887 96.8032 32.1615Z" fill="#3B3B3B"/>
<path d="M97.1958 33.1962C97.2918 33.3294 97.401 33.4526 97.5216 33.5638L98.6199 32.9094C98.5815 32.7501 98.5276 32.595 98.4588 32.4463L97.1958 33.1962Z" fill="#3B3B3B"/>
<path d="M96.1699 30.7061C96.1699 30.7061 94.9471 31.4927 94.5444 32.2426" stroke="#3B3B3B" stroke-width="0.221154" stroke-linecap="round" stroke-linejoin="round"/>
<path d="M94.7109 32.9129C94.7109 32.9129 94.7292 33.4496 95.2674 33.2217C95.8055 32.9938 96.168 30.9316 96.168 30.9316" stroke="#3B3B3B" stroke-width="0.221154" stroke-linecap="round" stroke-linejoin="round"/>
<path d="M94.6343 31.5929C94.9771 31.1678 95.4253 30.8407 95.9339 30.6445" stroke="#3B3B3B" stroke-width="0.221154" stroke-linecap="round" stroke-linejoin="round"/>
<path d="M96.1667 32.5488C95.9847 32.9003 95.7529 33.2235 95.4785 33.5082" stroke="#3B3B3B" stroke-width="0.221154" stroke-linecap="round" stroke-linejoin="round"/>
<path d="M96.6826 30.3928C96.6826 30.3928 97.9566 29.6907 98.8023 29.6944" stroke="#3B3B3B" stroke-width="0.221154" stroke-linecap="round" stroke-linejoin="round"/>
<path d="M99.3119 30.1768C99.3119 30.1768 99.7732 30.4488 99.3119 30.8164C98.8507 31.1839 96.8774 30.5149 96.8774 30.5149" stroke="#3B3B3B" stroke-width="0.221154" stroke-linecap="round" stroke-linejoin="round"/>
<path d="M98.1745 29.4639C97.639 29.5669 97.1401 29.8104 96.7285 30.1696" stroke="#3B3B3B" stroke-width="0.221154" stroke-linecap="round" stroke-linejoin="round"/>
<path d="M98.2944 31.2777C98.6901 31.2843 99.0847 31.2335 99.4659 31.127" stroke="#3B3B3B" stroke-width="0.221154" stroke-linecap="round" stroke-linejoin="round"/>
<path d="M96.0655 30.1152L95.6738 30.1226" stroke="#3B3B3B" stroke-width="0.221154" stroke-linecap="round" stroke-linejoin="round"/>
<path d="M95.5548 30.1309L95.1631 30.2301" stroke="#3B3B3B" stroke-width="0.221154" stroke-linecap="round" stroke-linejoin="round"/>
<path d="M96.2769 29.9389L96.3903 29.4941" stroke="#3B3B3B" stroke-width="0.221154" stroke-linecap="round" stroke-linejoin="round"/>
<path d="M96.4282 29.3426L96.5454 28.9346" stroke="#3B3B3B" stroke-width="0.221154" stroke-linecap="round" stroke-linejoin="round"/>
<path d="M130.273 43.7766C129.973 43.409 129.951 42.9238 130.222 42.707C130.493 42.4901 130.954 42.6187 131.254 42.9937C131.555 43.3686 131.573 43.8465 131.302 44.0633C131.031 44.2802 130.57 44.1626 130.273 43.7766Z" fill="#3B3B3B"/>
<path d="M130.997 44.4293C130.952 44.3348 130.94 44.2278 130.963 44.1258C130.987 44.0238 131.044 43.9328 131.125 43.8675C131.207 43.8023 131.308 43.7667 131.412 43.7666C131.517 43.7665 131.618 43.8018 131.7 43.8669C131.754 43.9597 131.77 44.0698 131.746 44.1745C131.721 44.2792 131.657 44.3704 131.568 44.4293C131.491 44.5038 131.389 44.5455 131.282 44.5455C131.176 44.5455 131.073 44.5038 130.997 44.4293Z" fill="#3B3B3B"/>
<path d="M129.115 42.4949C128.581 41.8185 128.405 41.0613 128.749 40.8003C129.093 40.5393 129.774 40.8775 130.308 41.5355C130.843 42.1935 130.594 42.4324 130.268 42.6934C129.942 42.9544 129.653 43.1712 129.115 42.4949Z" fill="#3B3B3B"/>
<path d="M130.29 41.566L130.272 41.5439L129.101 42.485C129.102 42.4923 129.102 42.4997 129.101 42.507C129.196 42.625 129.3 42.7356 129.412 42.8378L130.547 41.9336C130.47 41.8053 130.384 41.6825 130.29 41.566Z" fill="#3B3B3B"/>
<path d="M129.414 40.8365C129.32 40.7531 129.2 40.7056 129.074 40.7023C128.949 40.6991 128.826 40.7403 128.728 40.8188C128.629 40.8973 128.562 41.0081 128.537 41.1316C128.512 41.2552 128.531 41.3836 128.59 41.4945L129.414 40.8365Z" fill="#3B3B3B"/>
<path d="M130.583 42.2725L129.745 42.9488C129.926 42.9057 130.095 42.8226 130.24 42.7056C130.385 42.5886 130.503 42.4407 130.583 42.2725Z" fill="#3B3B3B"/>
<path d="M130.06 41.3005C129.948 41.1842 129.825 41.0784 129.694 40.9844L128.706 41.7857C128.767 41.9383 128.843 42.0848 128.933 42.2231L130.06 41.3005Z" fill="#3B3B3B"/>
<path d="M131.418 43.624C131.418 43.624 132.517 42.6756 132.821 41.8779" stroke="#3B3B3B" stroke-width="0.221154" stroke-linecap="round" stroke-linejoin="round"/>
<path d="M132.559 41.2328C132.559 41.2328 132.471 40.7035 131.966 41.0049C131.461 41.3063 131.388 43.3979 131.388 43.3979" stroke="#3B3B3B" stroke-width="0.221154" stroke-linecap="round" stroke-linejoin="round"/>
<path d="M132.814 42.5605C132.53 43.0228 132.132 43.4029 131.657 43.6633" stroke="#3B3B3B" stroke-width="0.221154" stroke-linecap="round" stroke-linejoin="round"/>
<path d="M131.162 41.8018C131.295 41.4288 131.481 41.0772 131.715 40.7578" stroke="#3B3B3B" stroke-width="0.221154" stroke-linecap="round" stroke-linejoin="round"/>
<path d="M130.953 44.0078C130.953 44.0078 129.785 44.8827 128.947 44.9929" stroke="#3B3B3B" stroke-width="0.221154" stroke-linecap="round" stroke-linejoin="round"/>
<path d="M128.366 44.5984C128.366 44.5984 127.872 44.3925 128.278 43.9661C128.684 43.5397 130.731 43.9294 130.731 43.9294" stroke="#3B3B3B" stroke-width="0.221154" stroke-linecap="round" stroke-linejoin="round"/>
<path d="M129.581 45.1349C130.098 44.9629 130.561 44.6574 130.924 44.249" stroke="#3B3B3B" stroke-width="0.221154" stroke-linecap="round" stroke-linejoin="round"/>
<path d="M129.23 43.3613C128.838 43.4091 128.455 43.5131 128.092 43.6701" stroke="#3B3B3B" stroke-width="0.221154" stroke-linecap="round" stroke-linejoin="round"/>
<path d="M131.598 44.2053L131.986 44.1465" stroke="#3B3B3B" stroke-width="0.221154" stroke-linecap="round" stroke-linejoin="round"/>
<path d="M132.109 44.1007L132.483 43.9463" stroke="#3B3B3B" stroke-width="0.221154" stroke-linecap="round" stroke-linejoin="round"/>
<path d="M131.408 44.3984L131.357 44.8542" stroke="#3B3B3B" stroke-width="0.221154" stroke-linecap="round" stroke-linejoin="round"/>
<path d="M131.339 45.0244L131.28 45.4435" stroke="#3B3B3B" stroke-width="0.221154" stroke-linecap="round" stroke-linejoin="round"/>
<path d="M115.628 49.2492C115.284 49.58 114.808 49.6462 114.57 49.3925C114.333 49.1389 114.417 48.6574 114.765 48.3376C115.112 48.0178 115.585 47.9406 115.822 48.1942C116.06 48.4478 115.976 48.9147 115.628 49.2492Z" fill="#3B3B3B"/>
<path d="M116.189 48.4658C116.099 48.5207 115.994 48.5431 115.889 48.5293C115.785 48.5155 115.689 48.4663 115.616 48.39C115.543 48.3136 115.499 48.2147 115.49 48.1095C115.481 48.0042 115.508 47.8991 115.567 47.8115C115.653 47.7475 115.76 47.7198 115.866 47.7342C115.972 47.7486 116.068 47.8041 116.134 47.8887C116.217 47.9588 116.268 48.0583 116.279 48.1661C116.289 48.2739 116.257 48.3814 116.189 48.4658Z" fill="#3B3B3B"/>
<path d="M114.433 50.523C113.81 51.1222 113.074 51.3611 112.785 51.0597C112.496 50.7583 112.785 50.0268 113.397 49.4313C114.008 48.8358 114.261 49.0637 114.546 49.3688C114.832 49.6739 115.062 49.9276 114.433 50.523Z" fill="#3B3B3B"/>
<path d="M113.399 49.435L113.381 49.4534L114.417 50.5562H114.435C114.544 50.4508 114.646 50.3378 114.739 50.218L113.751 49.1777C113.627 49.2542 113.509 49.3402 113.399 49.435Z" fill="#3B3B3B"/>
<path d="M112.751 50.3584C112.694 50.4666 112.667 50.5884 112.673 50.7109C112.68 50.8333 112.719 50.9517 112.788 51.0531C112.885 51.1273 113.001 51.1731 113.122 51.1854C113.244 51.1977 113.366 51.1761 113.476 51.123L112.751 50.3584Z" fill="#3B3B3B"/>
<path d="M114.089 49.0596L114.821 49.8425C114.784 49.6546 114.683 49.4856 114.535 49.3647C114.427 49.2137 114.269 49.1058 114.089 49.0596Z" fill="#3B3B3B"/>
<path d="M113.18 49.6758C113.074 49.8004 112.979 49.9345 112.898 50.0764L113.78 51.0064C113.926 50.9307 114.064 50.8421 114.194 50.7418L113.18 49.6758Z" fill="#3B3B3B"/>
<path d="M115.358 48.117C115.358 48.117 114.321 47.0951 113.501 46.8672" stroke="#3B3B3B" stroke-width="0.221154" stroke-linecap="round" stroke-linejoin="round"/>
<path d="M112.887 47.1807C112.887 47.1807 112.371 47.3167 112.711 47.7945C113.052 48.2724 115.139 48.1621 115.139 48.1621" stroke="#3B3B3B" stroke-width="0.221154" stroke-linecap="round" stroke-linejoin="round"/>
<path d="M114.161 46.8213C114.649 47.0621 115.066 47.4271 115.369 47.8799" stroke="#3B3B3B" stroke-width="0.221154" stroke-linecap="round" stroke-linejoin="round"/>
<path d="M113.573 48.5386C113.186 48.4414 112.816 48.2865 112.475 48.0791" stroke="#3B3B3B" stroke-width="0.221154" stroke-linecap="round" stroke-linejoin="round"/>
<path d="M115.775 48.5615C115.775 48.5615 116.746 49.6643 116.932 50.484" stroke="#3B3B3B" stroke-width="0.221154" stroke-linecap="round" stroke-linejoin="round"/>
<path d="M116.59 51.0772C116.59 51.0772 116.429 51.5882 115.968 51.2243C115.506 50.8603 115.715 48.7725 115.715 48.7725" stroke="#3B3B3B" stroke-width="0.221154" stroke-linecap="round" stroke-linejoin="round"/>
<path d="M117.014 49.8018C116.796 49.3008 116.452 48.8659 116.014 48.541" stroke="#3B3B3B" stroke-width="0.221154" stroke-linecap="round" stroke-linejoin="round"/>
<path d="M115.278 50.3281C115.36 50.714 115.498 51.0856 115.688 51.4309" stroke="#3B3B3B" stroke-width="0.221154" stroke-linecap="round" stroke-linejoin="round"/>
<path d="M115.915 47.8813L115.819 47.499" stroke="#3B3B3B" stroke-width="0.221154" stroke-linecap="round" stroke-linejoin="round"/>
<path d="M115.78 47.3768L115.593 47.0166" stroke="#3B3B3B" stroke-width="0.221154" stroke-linecap="round" stroke-linejoin="round"/>
<path d="M116.135 48.043L116.592 48.054" stroke="#3B3B3B" stroke-width="0.221154" stroke-linecap="round" stroke-linejoin="round"/>
<path d="M116.736 48.0586L117.161 48.0807" stroke="#3B3B3B" stroke-width="0.221154" stroke-linecap="round" stroke-linejoin="round"/>
</g>
</g>
<defs>
<clipPath id="clip0_370_5032">
<rect width="42.4615" height="26.9808" fill="white" transform="translate(92.8857 26.9785)"/>
</clipPath>
</defs>
</svg>
